<?xml version="1.0" standalone="no"?>
<!DOCTYPE svg PUBLIC "-//W3C//DTD SVG 20010904//EN"
 "http://www.w3.org/TR/2001/REC-SVG-20010904/DTD/svg10.dtd">
<svg version="1.0" xmlns="http://www.w3.org/2000/svg"
 width="1600.000000pt" height="1600.000000pt" viewBox="0 0 1600.000000 1600.000000"
 preserveAspectRatio="xMidYMid meet">
<metadata>
Created by potrace 1.14, written by Peter Selinger 2001-2017
</metadata>
<g transform="translate(0.000000,1600.000000) scale(0.100000,-0.100000)"
fill="#000000" stroke="none">
<path d="M7006 15563 c-4 -4 -107 -8 -229 -9 -122 -1 -233 -5 -247 -7 -14 -3
-35 -8 -46 -10 -12 -3 -37 -8 -56 -11 -20 -3 -46 -10 -59 -15 -13 -5 -27 -9
-31 -10 -28 -7 -68 -24 -68 -30 0 -4 -29 -18 -65 -32 -36 -13 -65 -28 -65 -32
0 -5 -4 -5 -10 -2 -5 3 -10 2 -10 -2 0 -5 -16 -17 -35 -27 -19 -11 -35 -23
-35 -28 0 -4 -7 -8 -15 -8 -8 0 -15 -4 -15 -9 0 -5 -13 -14 -30 -21 -16 -7
-30 -16 -30 -21 0 -5 -5 -9 -11 -9 -7 0 -32 -20 -57 -45 -24 -25 -42 -45 -38
-45 3 0 -3 -9 -14 -20 -11 -11 -20 -25 -20 -32 0 -6 -6 -19 -13 -27 -12 -14
-37 -82 -44 -121 -7 -40 -14 -87 -16 -110 -2 -14 -6 -31 -10 -38 -5 -6 -4 -12
2 -12 5 0 8 -12 6 -27 -1 -14 2 -40 7 -57 9 -30 19 -79 20 -103 1 -7 6 -13 11
-13 5 0 7 -11 5 -25 -3 -13 -1 -22 3 -19 5 3 9 -5 9 -18 0 -13 4 -30 10 -38 5
-9 5 -19 -2 -27 -6 -7 -6 -13 -1 -13 5 0 9 -9 10 -20 1 -11 -2 -20 -6 -20 -4
0 -8 -8 -8 -17 1 -50 -4 -74 -13 -68 -5 3 -10 -3 -10 -14 0 -21 -69 -126 -77
-117 -3 2 -17 -9 -32 -25 -16 -16 -33 -29 -39 -29 -11 0 -172 -154 -172 -164
0 -4 -19 -23 -42 -44 -22 -20 -53 -50 -67 -65 -81 -88 -111 -117 -121 -117 -5
0 -10 -6 -10 -14 0 -8 -9 -18 -20 -21 -11 -4 -18 -11 -15 -16 4 -5 2 -9 -3 -9
-5 0 -38 -27 -72 -60 -34 -33 -59 -60 -56 -60 4 0 -4 -11 -16 -25 -51 -56 -58
-65 -58 -70 0 -3 -8 -14 -17 -24 -34 -37 -44 -51 -36 -51 4 0 0 -6 -9 -12 -9
-7 -25 -30 -36 -50 -10 -21 -22 -35 -25 -32 -3 3 -8 -8 -12 -24 -3 -17 -13
-33 -22 -36 -9 -4 -13 -9 -10 -13 4 -3 -3 -17 -13 -31 -11 -13 -20 -29 -20
-34 0 -5 -7 -16 -15 -25 -8 -8 -13 -19 -10 -24 4 -5 2 -9 -3 -9 -10 0 -67
-110 -64 -122 1 -5 -3 -8 -9 -8 -5 0 -7 -4 -4 -10 3 -5 2 -10 -4 -10 -5 0 -15
-16 -22 -35 -7 -19 -16 -35 -20 -35 -7 0 -22 -39 -20 -52 1 -5 -4 -8 -9 -8 -6
0 -10 -7 -10 -15 0 -8 -4 -15 -10 -15 -5 0 -9 -3 -8 -7 1 -5 -11 -34 -25 -67
-15 -32 -27 -62 -27 -67 0 -5 -5 -9 -12 -9 -6 0 -9 -2 -6 -6 3 -3 -7 -32 -23
-65 -16 -32 -29 -64 -29 -69 0 -5 -9 -27 -20 -48 -11 -22 -23 -50 -25 -63 -3
-13 -9 -25 -15 -27 -5 -2 -10 -14 -10 -26 0 -13 -3 -26 -7 -30 -5 -4 -8 -11
-8 -14 -1 -12 -36 -117 -44 -132 -10 -19 -26 -82 -23 -92 1 -5 -3 -8 -8 -8 -5
0 -9 -3 -8 -7 2 -8 -18 -87 -29 -113 -8 -20 -14 -42 -15 -57 -1 -7 -5 -13 -9
-13 -4 0 -6 -9 -4 -20 2 -11 -1 -22 -6 -25 -5 -4 -7 -11 -4 -16 4 -5 1 -9 -5
-9 -6 0 -10 -8 -9 -17 1 -10 0 -20 -1 -23 -2 -6 -7 -25 -14 -56 -2 -12 -9 -37
-14 -55 -5 -19 -8 -44 -7 -56 1 -13 -2 -23 -7 -23 -4 0 -8 -13 -8 -28 0 -16
-3 -32 -7 -36 -4 -4 -8 -21 -9 -39 -1 -18 -3 -34 -4 -37 -2 -3 -4 -9 -5 -15
-1 -5 -5 -26 -9 -45 -3 -19 -8 -46 -10 -60 -3 -14 -5 -25 -6 -25 -1 0 -3 -12
-5 -26 -10 -79 -23 -144 -32 -169 -8 -19 -9 -27 -17 -74 -3 -21 -9 -42 -11
-46 -3 -5 -1 -12 5 -15 8 -5 8 -11 0 -20 -7 -8 -13 -38 -15 -67 -2 -29 -6 -78
-11 -108 -4 -30 -8 -67 -8 -82 -1 -16 -3 -28 -6 -28 -3 0 -7 -16 -8 -36 -4
-51 -6 -58 -17 -66 -6 -5 -5 -8 3 -8 7 0 11 -4 7 -10 -7 -11 -16 -134 -18
-250 -1 -47 -6 -88 -12 -92 -6 -5 -5 -8 3 -8 8 0 10 -6 5 -17 -11 -24 -10 -84
1 -102 6 -9 5 -12 -1 -8 -5 3 -9 -27 -10 -79 0 -54 4 -84 11 -84 8 0 8 -2 0
-8 -13 -9 -14 -42 -1 -42 5 0 4 -6 -2 -14 -9 -10 -9 -16 -1 -21 6 -4 7 -12 3
-18 -7 -11 -9 -32 -4 -47 1 -3 3 -35 5 -71 2 -36 6 -71 10 -78 4 -6 2 -11 -5
-11 -8 0 -8 -4 1 -15 7 -9 10 -18 7 -22 -4 -3 -2 -14 3 -24 7 -12 7 -20 0 -24
-7 -4 -6 -13 1 -27 6 -11 7 -23 3 -27 -9 -6 -15 -63 -13 -111 0 -14 2 -43 2
-65 1 -22 5 -42 9 -45 4 -3 8 -23 10 -45 2 -22 8 -43 13 -47 6 -5 5 -8 -4 -8
-9 0 -10 -4 -4 -12 5 -7 9 -22 8 -33 0 -11 3 -28 8 -37 5 -12 4 -18 -5 -18 -8
0 -9 -3 -3 -8 6 -4 11 -20 12 -37 1 -16 5 -55 9 -85 3 -30 7 -66 8 -80 1 -14
6 -31 10 -39 7 -10 5 -12 -4 -6 -10 6 -11 4 -4 -6 4 -8 9 -45 10 -84 1 -38 3
-70 4 -70 1 0 3 -61 5 -135 2 -74 5 -135 5 -135 4 0 10 -217 9 -310 -3 -184
-5 -230 -11 -241 -4 -5 -3 -16 1 -23 5 -7 6 -27 4 -44 -8 -54 -7 -228 2 -297
4 -36 8 -93 8 -127 0 -38 4 -60 10 -56 6 4 7 1 1 -8 -13 -22 -14 -42 -1 -58 9
-12 9 -13 0 -7 -10 5 -13 -6 -14 -46 -1 -29 -2 -80 -4 -113 -2 -33 -4 -99 -6
-147 -2 -57 -6 -85 -13 -81 -6 3 -6 0 1 -7 7 -7 9 -21 4 -34 -4 -11 -7 -36 -6
-53 0 -18 -2 -33 -7 -33 -4 0 -5 -9 -3 -20 2 -11 0 -22 -5 -25 -5 -3 -7 -12
-4 -19 3 -8 1 -17 -5 -21 -6 -3 -8 -17 -5 -32 4 -15 3 -24 -2 -20 -5 3 -9 -7
-8 -21 1 -15 -1 -31 -5 -37 -3 -5 -6 -18 -7 -27 -1 -10 -2 -19 -4 -20 -4 -6
-12 -44 -14 -65 0 -13 -4 -23 -7 -23 -3 0 -6 -12 -7 -27 -1 -16 -4 -44 -8 -63
-4 -19 -7 -45 -8 -57 0 -13 -4 -23 -8 -23 -4 0 -5 -9 -3 -20 2 -11 0 -20 -4
-20 -4 0 -7 -10 -6 -22 1 -13 0 -27 -3 -32 -3 -5 -6 -21 -8 -35 -1 -14 -6 -37
-9 -51 -4 -14 -7 -31 -7 -37 -1 -7 -6 -13 -11 -13 -6 0 -8 -3 -4 -6 3 -3 -1
-23 -8 -45 -8 -21 -11 -39 -7 -39 4 0 1 -4 -7 -9 -8 -5 -15 -17 -16 -28 -4
-38 -45 -135 -64 -150 -8 -7 -11 -13 -7 -13 5 0 4 -6 -2 -12 -6 -7 -10 -17
-11 -21 0 -18 -113 -231 -131 -247 -3 -3 -6 -12 -8 -20 -2 -8 -11 -26 -20 -40
-9 -14 -17 -28 -17 -32 0 -4 -8 -17 -17 -28 -10 -11 -18 -27 -18 -35 0 -8 -4
-15 -9 -15 -5 0 -18 -15 -30 -32 -11 -18 -21 -30 -21 -26 0 8 -100 -88 -100
-96 0 -3 -20 -25 -45 -50 -25 -26 -45 -44 -45 -41 0 2 -19 -16 -42 -42 -54
-58 -168 -173 -195 -194 -10 -9 -45 -31 -76 -50 -31 -18 -57 -37 -57 -42 0 -4
-4 -5 -10 -2 -5 3 -10 1 -10 -5 0 -6 -5 -8 -10 -5 -6 3 -13 0 -16 -9 -3 -8
-11 -13 -19 -10 -7 3 -15 -2 -18 -10 -4 -9 -13 -16 -22 -16 -8 0 -15 -5 -15
-10 0 -6 -3 -9 -7 -8 -5 1 -26 -7 -48 -17 -22 -10 -43 -17 -47 -17 -5 1 -8 -2
-8 -8 0 -5 -9 -10 -20 -10 -11 0 -20 -5 -20 -12 0 -6 -3 -8 -7 -5 -3 4 -11 3
-17 -2 -14 -11 -88 -36 -98 -33 -5 1 -8 -2 -8 -7 0 -5 -11 -8 -25 -6 -14 1
-23 0 -20 -3 5 -5 -98 -37 -159 -48 -15 -3 -44 -14 -63 -25 -20 -11 -31 -14
-27 -7 4 7 -3 4 -15 -7 -13 -11 -25 -19 -27 -17 -6 4 -116 -37 -130 -49 -6 -5
-14 -6 -17 -2 -4 3 -7 0 -7 -7 0 -7 -3 -10 -7 -7 -3 4 -15 -1 -26 -10 -15 -13
-19 -14 -13 -3 7 13 6 13 -6 0 -7 -8 -26 -22 -42 -30 -57 -29 -210 -175 -201
-190 3 -5 -3 -13 -12 -19 -10 -6 -15 -11 -11 -11 4 0 0 -19 -8 -42 -8 -23 -12
-48 -10 -55 3 -7 1 -15 -5 -18 -5 -4 -6 -11 -2 -18 3 -6 7 -25 9 -43 1 -17 5
-42 10 -55 4 -13 9 -26 9 -29 1 -3 7 -18 13 -33 7 -16 12 -31 12 -33 0 -3 7
-12 15 -21 8 -8 13 -19 10 -24 -4 -5 -2 -9 3 -9 5 0 15 -13 22 -30 7 -16 15
-30 19 -30 4 0 14 -12 23 -27 9 -16 25 -38 35 -50 47 -55 53 -64 53 -74 0 -5
5 -7 10 -4 5 3 10 -1 10 -10 0 -10 5 -13 12 -9 7 4 8 3 4 -5 -7 -11 58 -81 75
-81 4 0 14 -6 21 -13 21 -20 72 -52 81 -49 4 1 7 -3 7 -9 0 -5 5 -7 10 -4 6 3
10 -1 10 -9 0 -9 8 -16 19 -16 10 0 24 -6 30 -13 6 -8 29 -22 51 -32 22 -10
40 -22 40 -27 0 -5 4 -7 8 -4 5 3 18 -3 28 -13 11 -9 25 -16 32 -13 6 2 12 -1
12 -6 0 -6 13 -13 29 -17 16 -3 35 -13 42 -21 6 -8 24 -14 39 -14 15 0 30 -7
34 -15 3 -8 12 -12 21 -9 8 3 15 1 15 -5 0 -6 9 -11 19 -11 10 0 43 -11 72
-24 29 -14 56 -23 60 -21 4 3 9 -2 13 -10 3 -8 12 -12 21 -9 8 3 15 1 15 -5 0
-6 3 -10 8 -9 13 3 92 -25 92 -33 0 -4 8 -7 19 -6 21 1 101 -23 116 -35 5 -4
18 -8 29 -8 17 0 48 -8 106 -28 8 -3 26 -7 39 -9 14 -2 32 -8 40 -12 9 -4 28
-6 44 -5 15 2 27 -1 27 -5 0 -5 10 -7 23 -7 12 1 27 -1 32 -5 10 -6 73 -21
110 -25 11 -2 44 -9 73 -17 28 -9 52 -12 52 -9 0 4 4 2 8 -4 4 -7 25 -14 47
-17 22 -3 51 -8 65 -12 38 -9 93 -17 113 -17 9 1 17 -3 17 -7 0 -4 10 -7 23
-6 12 1 32 -2 44 -6 13 -5 38 -9 58 -11 19 -1 35 -5 35 -8 0 -3 12 -6 28 -6
53 -3 92 -8 92 -14 0 -3 17 -6 38 -8 39 -2 97 -10 97 -12 0 -1 10 -3 22 -6 12
-2 40 -10 62 -18 25 -8 41 -10 41 -4 0 7 5 6 13 -1 8 -6 17 -8 20 -4 4 3 7 2
7 -3 0 -5 16 -10 36 -11 21 -1 44 -5 53 -9 9 -4 30 -9 46 -10 17 -2 46 -6 65
-10 19 -4 45 -8 58 -8 12 -1 22 -3 22 -6 0 -3 12 -6 28 -7 25 -1 67 -10 67
-13 0 -1 23 -3 50 -5 92 -7 150 -17 163 -27 8 -7 12 -7 12 1 0 8 5 8 18 1 9
-5 36 -14 60 -20 23 -6 42 -15 42 -20 0 -5 8 -11 18 -14 27 -9 46 -73 43 -141
-6 -115 -7 -150 -2 -160 7 -14 7 -95 0 -95 -4 0 -5 -26 -2 -58 3 -31 5 -90 6
-129 0 -40 3 -73 7 -73 3 0 5 -12 5 -27 -1 -16 2 -38 6 -49 4 -13 3 -26 -4
-33 -6 -6 -7 -11 -1 -11 5 0 10 -24 11 -52 1 -75 7 -128 14 -128 3 0 4 -18 3
-40 -1 -22 1 -40 5 -40 6 0 11 -31 14 -77 0 -7 4 -13 9 -13 4 0 8 -9 8 -20 0
-11 5 -20 12 -20 6 0 8 -3 5 -6 -3 -4 -1 -16 5 -28 7 -11 11 -24 10 -28 -1 -5
3 -8 8 -8 5 0 9 -3 8 -7 -3 -17 17 -50 52 -85 21 -20 35 -40 32 -43 -3 -3 0
-5 6 -5 7 0 34 -15 60 -33 54 -38 132 -80 132 -71 0 4 12 -1 26 -11 18 -11 24
-12 18 -4 -6 11 -5 12 7 2 16 -13 44 -18 137 -27 29 -3 57 -8 62 -11 6 -4 10
-1 10 5 0 6 5 8 11 4 15 -9 207 -3 224 8 6 3 19 4 30 2 10 -1 25 2 32 8 9 7
13 7 13 -1 0 -7 5 -9 13 -4 6 4 23 8 37 8 57 3 145 17 148 24 1 4 16 6 32 5
17 -1 30 1 30 5 0 4 8 7 18 8 43 3 148 25 165 35 15 8 18 7 11 -4 -6 -11 -5
-11 9 1 9 7 17 10 17 6 0 -4 7 -2 15 5 8 7 15 9 15 5 0 -4 6 -2 13 4 8 6 17 8
20 4 4 -3 7 -2 7 4 0 6 6 10 13 10 21 -2 97 26 97 35 0 5 4 6 10 3 6 -3 10 -1
10 5 0 6 4 9 9 6 10 -7 204 82 209 95 2 5 8 7 13 3 5 -3 9 0 9 5 0 6 7 11 15
11 8 0 15 5 15 10 0 6 5 10 11 10 7 0 20 10 30 22 11 11 19 18 19 15 0 -3 25
19 55 48 30 30 55 59 55 64 0 5 6 11 13 14 6 3 21 22 32 43 11 22 23 42 28 45
4 3 9 16 10 27 1 12 6 22 12 22 6 0 11 8 12 18 1 9 5 31 8 47 13 62 9 193 -6
205 -4 3 -9 16 -10 30 -2 14 -8 28 -12 31 -4 3 -9 16 -10 27 -1 12 -5 22 -10
22 -4 0 -6 4 -2 9 3 5 1 12 -5 16 -6 4 -8 11 -5 16 4 5 -2 9 -11 9 -10 0 -14
3 -11 6 3 4 1 16 -5 28 -7 11 -13 24 -14 29 -1 4 -3 10 -4 15 -1 4 -2 10 -1
14 0 5 -4 8 -9 8 -7 0 -7 6 0 19 5 11 6 22 2 25 -7 4 -9 51 -2 51 1 0 3 7 5
15 7 32 24 66 41 82 42 39 83 68 97 68 8 0 17 4 19 8 4 10 110 62 136 67 11 2
39 14 63 27 24 12 49 23 54 23 6 0 12 3 15 6 3 3 41 20 85 37 44 17 94 37 110
43 34 14 55 20 73 21 6 1 12 5 12 10 0 4 3 7 8 6 4 -1 18 1 32 5 14 4 43 13
65 19 22 6 46 16 54 22 12 9 13 8 6 -4 -7 -13 -6 -13 7 -2 9 7 29 15 45 18 15
3 32 9 38 15 5 5 17 9 27 9 10 0 18 6 18 13 0 8 4 7 10 -3 9 -13 14 -7 11 13
0 4 2 6 6 5 17 -4 73 14 73 23 0 6 5 7 10 4 9 -5 66 27 80 46 3 3 16 10 30 14
14 4 32 16 41 26 9 10 19 16 23 12 3 -4 20 4 38 17 17 12 27 17 23 9 -5 -7 5
-3 22 9 17 12 39 22 49 22 9 0 14 3 11 7 -7 6 79 60 97 61 5 0 13 7 18 16 5 9
15 16 22 16 8 0 19 7 26 15 7 8 16 12 21 9 5 -3 9 2 9 11 0 9 5 13 10 10 6 -3
10 -1 10 4 0 6 3 10 8 9 7 -3 382 368 382 377 0 6 25 37 60 75 14 15 26 33 28
41 2 7 12 19 23 27 10 7 19 20 19 28 0 8 5 14 10 14 6 0 10 7 10 16 0 8 4 13
9 9 5 -3 12 3 15 12 4 10 19 32 34 49 37 43 57 73 57 85 0 5 7 14 15 19 8 5
11 10 5 10 -5 0 -1 7 10 16 11 8 18 16 16 17 -8 4 10 47 20 47 5 0 9 9 9 19 0
11 7 27 16 35 8 9 12 16 7 16 -4 0 -1 6 8 13 9 7 17 15 18 19 4 19 37 83 44
86 4 2 7 12 7 23 0 10 5 19 11 19 5 0 7 5 4 10 -3 6 -1 10 4 10 6 0 10 3 10 8
-1 4 0 10 1 15 1 4 3 10 4 15 1 4 7 17 14 30 7 12 10 22 6 22 -3 0 0 10 8 23
8 12 19 36 23 52 8 31 12 46 18 68 2 6 9 25 15 40 7 16 12 35 12 43 0 8 5 14
11 14 5 0 8 4 5 8 -2 4 1 21 9 37 22 49 35 97 29 106 -3 5 -1 9 3 9 5 0 10 14
11 32 2 17 6 36 10 42 4 6 7 28 6 49 0 20 2 37 6 37 4 0 6 10 5 23 -1 12 2 32
6 45 6 16 6 21 -2 16 -8 -4 -8 -1 -1 12 9 18 32 115 37 161 2 12 6 27 10 32 3
6 0 11 -7 11 -9 0 -9 3 -2 8 6 4 10 17 9 30 -1 12 3 22 9 22 6 0 4 5 -4 10 -9
6 -10 10 -3 10 7 0 10 15 9 40 -2 22 0 40 3 40 4 0 8 19 9 43 2 39 8 82 12 82
3 0 10 42 12 77 2 21 5 38 8 38 5 0 9 37 13 117 1 18 4 33 7 33 3 0 5 15 6 33
4 120 8 183 13 192 3 6 6 26 6 45 0 19 3 40 5 45 3 6 5 34 5 62 0 29 2 53 5
53 3 0 6 9 7 21 3 29 35 113 47 121 6 4 8 8 3 8 -4 0 -1 12 7 28 16 31 76 108
76 98 0 -4 10 2 21 13 20 19 65 35 99 35 8 0 18 5 22 11 5 6 8 5 8 -4 0 -11 3
-11 15 -1 8 6 20 8 27 4 14 -9 62 -14 166 -16 39 -1 72 -4 72 -7 0 -6 197 -5
258 1 17 2 32 6 32 9 0 6 17 9 53 10 9 0 17 5 17 11 0 7 5 6 14 -1 9 -7 15 -8
18 -2 1 5 23 13 48 16 76 10 79 11 86 18 4 4 19 7 34 7 15 0 30 3 33 7 4 3 18
8 32 10 40 5 80 11 85 13 3 2 8 2 13 1 4 0 7 4 7 10 0 6 6 9 14 6 7 -3 18 -1
24 5 6 6 21 12 34 13 35 4 68 17 64 24 -3 4 15 13 39 20 24 7 49 19 55 26 6 8
18 11 26 8 8 -3 14 0 14 6 0 6 6 11 14 11 8 0 22 7 30 16 12 12 16 12 16 2 0
-9 2 -10 8 -2 4 7 36 24 72 38 36 15 73 31 82 36 10 6 25 10 33 10 8 0 15 5
15 10 0 6 3 9 8 8 9 -2 85 35 93 46 4 5 11 6 17 2 5 -3 12 1 16 9 3 8 12 15
20 15 7 0 17 7 20 16 3 8 10 13 14 10 5 -3 20 6 32 19 13 14 29 25 36 25 7 0
20 10 28 22 9 12 16 19 16 14 0 -5 9 1 20 14 11 13 20 20 20 16 0 -4 14 4 31
18 17 14 35 26 40 26 6 0 7 5 4 10 -3 6 -1 10 4 10 6 0 43 32 82 70 40 39 69
70 65 70 -4 0 6 13 21 30 56 59 82 90 76 90 -3 0 6 11 21 25 14 13 26 28 26
32 0 5 13 23 29 40 16 18 26 34 23 37 -2 3 3 8 12 12 9 3 16 12 16 19 0 6 11
24 24 38 14 15 33 41 43 59 10 18 23 36 28 40 6 4 7 8 3 8 -4 0 1 23 12 50 11
28 17 50 14 50 -4 0 -1 6 5 13 6 8 8 17 4 20 -3 4 -2 7 4 7 5 0 10 7 11 15 1
8 3 22 4 30 1 8 5 15 10 15 5 0 7 4 3 9 -3 5 -1 12 4 15 5 4 8 14 7 24 -2 9 0
19 5 22 4 3 10 17 12 30 2 14 9 37 15 53 7 15 14 38 16 50 3 12 8 36 12 52 3
17 7 37 8 45 1 9 4 20 7 25 6 10 13 192 12 300 0 54 -10 180 -13 180 -3 0 -11
42 -14 80 -3 22 -5 40 -6 40 -2 0 -12 64 -13 83 0 6 -3 12 -6 12 -4 0 -8 11
-9 25 -1 14 -9 39 -17 55 -9 17 -12 30 -8 30 5 0 3 4 -2 8 -6 4 -26 40 -45 80
-19 39 -38 72 -43 72 -4 0 -5 5 -2 10 3 6 2 10 -4 10 -5 0 -13 9 -16 21 -4 12
-14 30 -23 40 -10 10 -25 28 -35 39 -10 12 -15 25 -12 29 2 5 -2 12 -11 15 -8
3 -13 10 -10 15 3 5 -1 11 -9 15 -8 3 -15 12 -15 21 0 8 -5 15 -11 15 -5 0 -8
4 -5 9 3 5 -1 11 -9 15 -8 3 -15 12 -15 21 0 8 -7 15 -17 15 -9 0 -13 3 -10 6
4 4 -3 15 -15 25 -11 11 -18 19 -15 19 3 0 -30 36 -74 81 -43 44 -79 82 -79
85 0 10 -85 82 -92 78 -4 -3 -8 2 -8 10 0 9 -6 16 -13 16 -7 0 -20 8 -29 18
-20 20 -30 29 -80 62 -21 14 -38 29 -38 33 0 5 -4 6 -9 3 -5 -3 -11 1 -15 9
-3 8 -12 15 -21 15 -8 0 -15 5 -15 12 0 6 -3 8 -7 5 -3 -4 -13 2 -20 13 -8 11
-19 18 -24 15 -5 -4 -9 -1 -9 6 0 7 -3 10 -6 6 -4 -3 -12 -1 -20 6 -32 29 -44
37 -44 32 0 -3 -15 5 -33 19 -19 14 -37 23 -40 19 -4 -3 -7 -1 -7 6 0 7 -4 10
-9 7 -5 -4 -11 -3 -13 2 -1 4 -38 25 -80 46 -42 21 -80 41 -83 45 -4 3 -10 6
-13 7 -11 1 -45 15 -64 25 -10 5 -25 9 -33 9 -8 0 -15 3 -15 8 0 6 -35 21 -80
33 -8 2 -18 8 -21 12 -3 5 -22 9 -42 10 -20 1 -37 5 -37 8 0 6 -26 14 -75 25
-5 1 -14 3 -20 4 -5 1 -13 2 -17 1 -5 0 -8 3 -8 8 0 8 -24 18 -64 27 -11 3
-26 10 -35 17 -9 8 -12 8 -8 1 4 -7 -10 -3 -31 7 -20 11 -42 17 -49 14 -7 -2
-13 0 -13 5 0 6 -3 9 -7 8 -10 -2 -64 13 -78 20 -5 4 -16 7 -25 8 -20 3 -55
12 -55 14 0 3 -39 10 -67 13 -16 1 -28 5 -28 8 0 4 -15 9 -32 12 -18 3 -45 8
-60 11 -57 12 -83 18 -95 18 -7 1 -13 5 -13 10 0 5 -4 6 -10 3 -26 -16 -191
109 -176 133 3 6 -1 13 -10 16 -8 3 -12 10 -9 16 3 5 1 10 -4 10 -6 0 -10 3
-9 8 2 9 -13 74 -20 87 -4 6 -7 19 -9 30 -1 11 -5 36 -8 55 -4 19 -8 54 -9 77
0 24 -4 43 -7 43 -4 0 -7 19 -8 43 -3 61 -4 67 -10 67 -3 0 -7 19 -8 42 -2 23
-9 45 -15 50 -10 6 -10 8 0 8 8 0 10 5 6 12 -4 7 -9 24 -10 38 -3 44 -14 107
-31 167 -8 32 -15 66 -15 76 0 9 -2 17 -6 17 -4 0 -9 12 -10 27 -1 15 -5 29
-10 32 -8 7 -11 18 -14 60 -1 16 -6 27 -10 25 -4 -3 -8 9 -8 25 0 17 -5 31
-12 31 -6 0 -8 3 -5 7 4 3 2 12 -4 20 -6 7 -8 13 -5 13 4 0 2 8 -3 19 -6 10
-12 33 -13 50 -1 17 -5 31 -9 31 -4 0 -6 12 -6 26 0 15 -4 29 -9 33 -5 3 -9
15 -10 26 -1 11 -10 39 -22 63 -11 23 -15 39 -9 36 7 -3 4 1 -5 9 -10 8 -15
16 -12 19 3 3 -4 21 -15 39 -12 19 -21 39 -21 45 0 6 -8 29 -17 50 -9 22 -16
42 -15 47 1 4 -3 7 -9 7 -6 0 -9 7 -6 15 4 8 2 17 -3 20 -6 4 -10 14 -10 24 0
10 -7 24 -15 31 -9 7 -14 18 -12 24 3 6 -1 25 -8 43 -8 17 -11 34 -7 37 3 3
-1 6 -8 6 -7 0 -11 3 -7 6 3 4 0 19 -9 35 -8 16 -14 30 -13 31 4 6 -24 83 -34
96 -5 6 -6 12 -3 12 4 0 1 10 -6 23 -7 12 -11 25 -10 30 1 4 -2 7 -7 7 -5 0
-12 13 -16 29 -3 15 -15 37 -25 49 -10 11 -16 23 -12 27 4 4 -2 13 -13 21 -11
8 -19 17 -18 19 5 10 -28 75 -37 75 -6 0 -10 5 -10 10 0 10 -48 89 -60 100 -4
3 -12 20 -19 38 -8 17 -17 32 -21 32 -4 0 -13 15 -21 33 -7 17 -19 36 -26 40
-7 4 -13 15 -13 22 0 8 -5 15 -11 15 -5 0 -8 4 -5 9 3 5 -1 12 -10 15 -8 3
-13 10 -10 15 4 5 3 11 -1 13 -12 5 -149 205 -151 221 -1 4 -12 18 -24 31 -13
13 -36 41 -53 62 -16 21 -61 69 -100 106 -38 36 -74 72 -80 78 -5 6 -62 64
-125 129 -63 64 -124 130 -135 146 -29 42 -73 85 -86 85 -7 0 -10 3 -6 6 3 3
-6 18 -21 33 -47 48 -102 111 -96 111 3 0 -1 7 -8 15 -34 37 -53 71 -50 88 1
4 -2 7 -6 7 -5 0 -9 6 -10 13 -1 6 -3 23 -5 37 -1 14 -6 30 -10 37 -4 6 -3 15
3 18 8 5 8 11 0 20 -8 9 -8 15 0 20 6 3 8 11 5 16 -11 17 -15 53 -17 137 0 45
-4 82 -8 82 -3 0 -7 12 -7 28 -1 30 -6 59 -22 110 -5 17 -7 32 -5 32 3 0 -2 7
-10 16 -9 8 -14 19 -11 24 3 5 0 10 -5 12 -6 2 -13 10 -15 18 -7 35 -18 60
-24 60 -3 0 -12 14 -19 30 -8 17 -21 30 -30 30 -8 0 -12 3 -9 7 4 3 -11 24
-33 45 -22 22 -40 44 -40 50 0 6 -3 9 -6 5 -3 -3 -22 12 -42 34 -21 22 -66 59
-102 81 -36 23 -66 45 -68 50 -2 4 -10 8 -18 8 -8 0 -14 4 -14 10 0 5 -3 9 -7
8 -5 -1 -21 4 -36 10 -16 7 -33 12 -38 12 -5 0 -9 5 -9 10 0 6 -6 10 -12 8 -7
-1 -27 5 -44 15 -17 9 -34 13 -38 10 -3 -4 -6 -1 -6 6 0 7 -4 10 -8 7 -5 -3
-30 6 -55 19 -26 13 -47 21 -47 19 0 -2 -16 5 -37 16 -20 10 -40 17 -45 14 -4
-3 -8 -1 -8 4 0 5 -15 13 -32 17 -18 4 -40 9 -48 12 -8 2 -21 5 -27 5 -7 1
-13 4 -13 8 0 3 -17 7 -37 8 -21 2 -40 6 -43 10 -3 4 -16 9 -30 10 -14 2 -29
8 -35 12 -5 4 -30 14 -55 21 -25 7 -52 14 -60 17 -8 2 -24 5 -36 6 -11 1 -24
5 -30 8 -5 3 -19 4 -31 3 -13 -1 -23 1 -23 5 0 4 -34 8 -77 9 -42 1 -80 4 -85
7 -4 3 -8 -1 -8 -8 0 -9 -3 -9 -10 2 -5 8 -10 11 -10 6 0 -5 -6 -3 -13 3 -8 6
-17 8 -21 4z m-781 -12843 c3 -5 1 -10 -4 -10 -6 0 -11 5 -11 10 0 6 2 10 4
10 3 0 8 -4 11 -10z"/>
</g>
</svg>
